#!OML:ASF H:\Terrain\Patient Classification 1\Takeo\Monday\TakeoMonday.ASF
:FULLY-SPECIFIED
:DEGREES
180
root 10.083 17.4078 0.5631 -5.39987 0.405124 1.87194
lowerback 6.72082 -0.94769 -1.69152
upperback 1.57229 -1.36112 0.695956
thorax -2.08855 -0.670782 1.78014
lowerneck -7.65828 7.57104 3.38297
upperneck 5.87805 10.0702 -3.78111
head 3.68183 4.9162 -1.25167
rclavicle 2.842e-014 -3.57812e-015
rhumerus -34.2679 -3.3399 -83.6807
rradius 23.3699
rwrist -8.11933
rhand -20.7634 15.5236
rfingers 7.12502
rthumb 5.60275 -14.3823
lclavicle 2.842e-014 -3.57812e-015
lhumerus -31.076 -0.524006 89.1771
lradius 50.787
lwrist 27.6112
lhand -22.1833 20.8374
lfingers 7.12502
lthumb 4.23179 50.7751
rfemur -21.6341 3.68951 18.6458
rtibia 63.6266
rfoot -10.312 -16.3514
rtoes -15.6714
lfemur -1.63133 -2.84273 -29.1165
ltibia 28.4361
lfoot -18.9933 9.94667
ltoes -5.22461
181
root 10.083 17.4116 0.732727 -5.38701 0.785344 1.73627
lowerback 6.64683 -1.0637 -1.70636
upperback 1.62829 -1.5124 0.810934
thorax -1.97961 -0.747837 1.91668
lowerneck -7.70921 7.58628 3.00199
upperneck 5.96053 10.0989 -3.37232
head 3.66861 4.93704 -1.04823
rclavicle -3.21161e-015 3.97569e-016
rhumerus -35.0821 -4.03239 -83.162
rradius 22.5289
rwrist -8.0212
rhand -20.7566 16.4609
rfingers 7.12502
rthumb 5.60935 -13.4448
lclavicle -3.21161e-015 3.97569e-016
lhumerus -30.6446 -1.37108 89.2925
lradius 52.1097
lwrist 27.976
lhand -22.4872 20.0733
lfingers 7.12502
lthumb 3.93828 50.0167
rfemur -22.2408 4.01798 18.6571
rtibia 61.6159
rfoot -11.0779 -15.885
rtoes -17.8603
lfemur -0.944289 -2.84783 -28.9916
ltibia 28.3368
lfoot -19.6309 9.74282
ltoes -5.11573
182
root 10.0827 17.4079 0.905031 -5.55571 1.23144 1.95152
lowerback 6.7338 -1.10567 -2.04002
upperback 1.83191 -1.59166 0.796647
thorax -1.80565 -0.790427 2.09469
lowerneck -8.07363 7.51597 2.5909
upperneck 6.01231 10.0085 -2.96542
head 3.70044 4.89478 -0.837088
rclavicle 3.18925e-014 -9.54166e-015
rhumerus -35.767 -5.4536 -82.3161
rradius 21.7166
rwrist -7.32229
rhand -20.4915 16.9872
rfingers 7.12502
rthumb 5.86527 -12.9116
lclavicle 3.18925e-014 -9.54166e-015
lhumerus -30.1255 -2.13384 89.4016
lradius 53.6665
lwrist 28.1822
lhand -22.8587 19.1669
lfingers 7.12502
lthumb 3.57952 49.1166
rfemur -22.457 4.19501 18.2956
rtibia 59.4949
rfoot -11.8707 -15.3965
rtoes -18.0326
lfemur 0.0835221 -2.87429 -29.2569
ltibia 27.9208
lfoot -19.6473 9.53553
ltoes -5.79001
183
root 10.0848 17.4011 1.07854 -5.75465 1.67745 2.14085
lowerback 7.01858 -1.12518 -2.24952
upperback 1.91576 -1.63821 0.743724
thorax -1.87066 -0.813014 2.16762
lowerneck -7.95784 7.37301 2.52469
upperneck 5.69188 9.81355 -2.92989
head 3.55288 4.80226 -0.838103
rclavicle -1.27719e-014 -3.18055e-015
rhumerus -36.63 -7.22316 -81.3193
rradius 20.8772
rwrist -6.1905
rhand -20.406 17.0093
rfingers 7.12502
rthumb 5.94787 -12.8872
lclavicle -1.27719e-014 -3.18055e-015
lhumerus -29.8988 -2.94044 89.469
lradius 55.4192
lwrist 28.3088
lhand -23.0388 19.4326
lfingers 7.12502
lthumb 3.40567 49.3851
rfemur -22.5906 4.43415 17.9486
rtibia 57.2801
rfoot -12.4943 -14.9602
rtoes -16.6037
lfemur 1.33905 -3.12487 -29.5414
ltibia 27.1043
lfoot -19.492 9.26286
ltoes -4.90083
184
root 10.0883 17.4056 1.25185 -5.54908 2.08022 2.67943
lowerback 6.95361 -1.16735 -2.83822
upperback 1.7799 -1.73731 0.662578
thorax -1.95376 -0.858085 2.42325
lowerneck -7.62824 7.25719 2.41984
upperneck 5.45749 9.67296 -2.97486
head 3.39979 4.73431 -0.861261
rclavicle 4.93234e-015 5.1684e-015
rhumerus -37.6143 -8.27407 -80.4279
rradius 19.9703
rwrist -5.48983
rhand -20.5619 17.2479
rfingers 7.12502
rthumb 5.79733 -12.6528
lclavicle 4.93234e-015 5.1684e-015
lhumerus -29.7692 -3.58836 89.58
lradius 56.8271
lwrist 28.3756
lhand -23.7656 18.708
lfingers 7.12502
lthumb 2.70371 48.6706
rfemur -23.2785 4.886 17.0625
rtibia 54.9371
rfoot -12.9406 -14.6043
rtoes -14.9983
lfemur 2.27647 -3.46415 -30.2142
ltibia 26.0469
lfoot -19.4057 9.18692
ltoes -4.38626
185
root 10.0898 17.4188 1.4221 -5.24269 2.43414 3.18871
lowerback 6.72695 -1.20663 -3.457
upperback 1.67524 -1.8277 0.619286
thorax -1.91134 -0.900711 2.72878
lowerneck -7.41849 7.17657 2.45892
upperneck 5.35415 9.578 -3.18171
head 3.33651 4.68339 -0.950314
rclavicle 5.31749e-015 -9.14409e-015
rhumerus -38.5058 -9.03299 -79.5981
rradius 19.0653
rwrist -4.88552
rhand -20.7109 17.5736
rfingers 7.12502
rthumb 5.65346 -12.331
lclavicle 5.31749e-015 -9.14409e-015
lhumerus -29.458 -4.14477 89.7202
lradius 57.9649
lwrist 28.3371
lhand -25.2061 15.9404
lfingers 7.12502
lthumb 1.3125 45.9161
rfemur -24.0689 5.41455 16.1581
rtibia 52.4319
rfoot -12.7432 -14.5092
rtoes -14.1154
lfemur 3.16464 -3.66306 -30.8125
ltibia 24.8952
lfoot -19.0515 9.3065
ltoes -6.3891
186
root 10.0912 17.4301 1.59136 -5.20611 2.79451 3.0296
lowerback 6.73951 -1.3025 -3.4693
upperback 1.77324 -1.95174 0.762748
thorax -1.80263 -0.966288 2.89206
lowerneck -7.60788 7.15527 2.66314
upperneck 5.19908 9.53946 -3.44658
head 3.34706 4.65733 -1.06845
rclavicle -8.07563e-015 -2.38542e-015
rhumerus -39.1527 -10.1847 -78.6098
rradius 18.1711
rwrist -3.82404
rhand -20.6571 18.2242
rfingers 7.12502
rthumb 5.70545 -11.679
lclavicle -8.07563e-015 -2.38542e-015
lhumerus -28.9828 -4.47588 89.7798
lradius 59.2393
lwrist 28.3117
lhand -25.6599 14.6423
lfingers 7.12502
lthumb 0.874221 44.6202
rfemur -24.3461 5.93074 16.0526
rtibia 49.6599
rfoot -12.1599 -14.626
rtoes -15.0928
lfemur 4.31889 -3.68794 -30.6349
ltibia 23.7708
lfoot -18.7397 9.1729
ltoes -7.639
187
root 10.0933 17.4382 1.76828 -5.16492 3.3025 2.94704
lowerback 6.64087 -1.42625 -3.45192
upperback 1.96023 -2.10823 0.799511
thorax -1.54223 -1.05259 2.92498
lowerneck -8.35294 7.11553 2.67885
upperneck 5.39049 9.4694 -3.38156
head 3.55163 4.61448 -1.02369
rclavicle -2.63017e-014 2.10712e-014
rhumerus -39.7191 -12.0734 -77.3468
rradius 17.254
rwrist -2.19435
rhand -20.3428 19.3339
rfingers 7.12502
rthumb 6.00887 -10.5609
lclavicle -2.63017e-014 2.10712e-014
lhumerus -28.4821 -5.00863 89.7292
lradius 60.6599
lwrist 28.4794
lhand -25.0704 15.9485
lfingers 7.12502
lthumb 1.44358 45.9233
rfemur -24.391 6.26473 15.8287
rtibia 46.7199
rfoot -12.4357 -14.6536
rtoes -16.7811
lfemur 5.40281 -3.77291 -30.5199
ltibia 22.7647
lfoot -18.5779 8.86398
ltoes -7.26462
188
root 10.0928 17.4419 1.94724 -4.91573 3.678 2.74526
lowerback 6.34123 -1.50018 -3.19067
upperback 1.98691 -2.17971 0.787792
thorax -1.35338 -1.09232 2.76042
lowerneck -8.84225 7.03162 2.57186
upperneck 5.75569 9.35013 -3.13123
head 3.74906 4.55445 -0.907392
rclavicle 3.18055e-015 -6.75868e-015
rhumerus -40.5812 -13.9216 -76.1555
rradius 16.4113
rwrist -0.743732
rhand -20.2553 19.704
rfingers 7.12502
rthumb 6.0933 -10.1884
lclavicle 3.18055e-015 -6.75868e-015
lhumerus -28.1445 -5.7447 89.5919
lradius 61.9088
lwrist 28.6555
lhand -24.9331 16.2837
lfingers 7.12502
lthumb 1.57617 46.2576
rfemur -24.6096 6.6726 15.7351
rtibia 43.6888
rfoot -13.0931 -14.7031
rtoes -16.9833
lfemur 6.15861 -3.83079 -30.2261
ltibia 21.9255
lfoot -18.427 8.46738
ltoes -6.93748
189
root 10.0949 17.4347 2.11868 -4.67406 3.95599 2.57844
lowerback 6.35086 -1.54346 -2.9588
upperback 1.80861 -2.22463 0.808361
thorax -1.54774 -1.10868 2.65873
lowerneck -8.70317 6.93445 2.43151
upperneck 5.71348 9.21823 -2.89231
head 3.67968 4.49836 -0.82027
rclavicle 9.77772e-015 5.96354e-015
rhumerus -41.7107 -14.6071 -75.3796
rradius 15.6856
rwrist -0.343016
rhand -20.3656 18.9842
rfingers 7.12502
rthumb 5.98687 -10.9112
lclavicle 9.77772e-015 5.96354e-015
lhumerus -28.1164 -6.23218 89.531
lradius 63.0381
lwrist 28.9717
lhand -25.3611 14.4828
lfingers 7.12502
lthumb 1.16283 44.4594
rfemur -24.8106 6.97475 15.6475
rtibia 40.6521
rfoot -13.3669 -14.4581
rtoes -16.9804
lfemur 6.87519 -3.8771 -29.9941
ltibia 21.2005
lfoot -18.3346 8.0387
ltoes -6.73386
190
root 10.097 17.4355 2.2918 -4.70342 4.32419 2.68321
lowerback 6.56599 -1.60075 -3.09372
upperback 1.7885 -2.31568 0.825448
thorax -1.67577 -1.15124 2.76678
lowerneck -8.64872 6.80608 2.24753
upperneck 5.51001 9.05469 -2.79125
head 3.57592 4.41991 -0.772604
rclavicle -3.76448e-015 4.77083e-015
rhumerus -42.6358 -15.1007 -74.5448
rradius 14.9664
rwrist 0.265644
rhand -20.5412 17.764
rfingers 7.12502
rthumb 5.81728 -12.1361
lclavicle -3.76448e-015 4.77083e-015
lhumerus -28.0753 -6.59044 89.5586
lradius 64.2644
lwrist 29.4202
lhand -25.8383 13.481
lfingers 7.12502
lthumb 0.70196 43.4596
rfemur -24.6562 7.15557 15.3282
rtibia 37.7105
rfoot -13.6659 -13.9615
rtoes -17.4241
lfemur 7.92795 -4.06166 -30.1128
ltibia 20.4634
lfoot -18.3843 7.73783
ltoes -5.34281
191
root 10.0891 17.4442 2.4758 -4.79695 4.60835 2.42393
lowerback 6.52642 -1.66949 -3.04166
upperback 1.95312 -2.39701 1.00965
thorax -1.47239 -1.19839 2.92829
lowerneck -8.88342 6.70308 2.10892
upperneck 5.41928 8.93758 -2.92939
head 3.58675 4.3512 -0.794913
rclavicle -1.78906e-015 -9.14409e-015
rhumerus -43.4924 -16.5184 -73.0486
rradius 14.3401
rwrist 2.22915
rhand -20.7644 16.5008
rfingers 7.12502
rthumb 5.60178 -13.4051
lclavicle -1.78906e-015 -9.14409e-015
lhumerus -27.7506 -6.99228 89.5493
lradius 65.3578
lwrist 29.6913
lhand -26.1197 13.988
lfingers 7.12502
lthumb 0.430092 43.9673
rfemur -24.4946 7.78357 15.436
rtibia 34.942
rfoot -14.412 -14.1787
rtoes -17.3105
lfemur 9.11973 -4.17769 -29.7614
ltibia 19.5586
lfoot -18.4552 7.4522
ltoes -4.19091
192
root 10.0813 17.4377 2.66226 -4.72269 4.98026 2.27728
lowerback 6.33851 -1.77726 -3.05938
upperback 2.03811 -2.53305 1.1413
thorax -1.26347 -1.27202 3.0741
lowerneck -8.73641 6.58097 2.01013
upperneck 4.93025 8.7932 -3.19019
head 3.3931 4.27315 -0.885642
rclavicle -1.4884e-014 5.96354e-015
rhumerus -44.597 -18.2181 -71.271
rradius 13.8231
rwrist 4.50226
rhand -20.6752 15.6691
rfingers 7.12502
rthumb 5.68798 -14.2345
lclavicle -1.4884e-014 5.96354e-015
lhumerus -27.4201 -7.37274 89.5245
lradius 66.2729
lwrist 29.6255
lhand -26.1939 14.3467
lfingers 7.12502
lthumb 0.358509 44.3261
rfemur -24.5821 8.28945 15.3979
rtibia 32.4076
rfoot -15.2061 -14.8275
rtoes -18.0119
lfemur 10.2446 -4.20429 -29.4837
ltibia 18.4045
lfoot -18.2237 7.13053
ltoes -4.58802
193
root 10.0865 17.4283 2.8431 -4.50019 5.38768 2.48385
lowerback 6.1119 -1.91905 -3.22031
upperback 2.00372 -2.72643 1.0753
thorax -1.15386 -1.37043 3.10024
lowerneck -8.83596 6.55746 1.82495
upperneck 4.93772 8.77197 -3.05551
head 3.39601 4.26317 -0.808309
rclavicle -3.03147e-014 4.37326e-015
rhumerus -45.8195 -19.6857 -69.7064
rradius 13.3852
rwrist 6.29719
rhand -20.4638 15.4729
rfingers 7.12502
rthumb 5.89207 -14.4252
lclavicle -3.03147e-014 4.37326e-015
lhumerus -27.3895 -7.5149 89.4203
lradius 67.2585
lwrist 29.209
lhand -26.3327 14.0716
lfingers 7.12502
lthumb 0.224423 44.0512
rfemur -24.8637 8.04692 15.0399
rtibia 30.172
rfoot -15.7538 -15.031
rtoes -19.6248
lfemur 11.308 -4.28736 -29.6616
ltibia 17.0965
lfoot -17.7118 6.87614
ltoes -4.94562
